<?xml version="1.0" standalone="no"?>
<!DOCTYPE svg PUBLIC "-//W3C//DTD SVG 20010904//EN"
 "http://www.w3.org/TR/2001/REC-SVG-20010904/DTD/svg10.dtd">
<svg version="1.0" xmlns="http://www.w3.org/2000/svg"
 width="1920.000000pt" height="1920.000000pt" viewBox="0 0 1920.000000 1920.000000"
 preserveAspectRatio="xMidYMid meet">
<metadata>
Created by potrace 1.11, written by Peter Selinger 2001-2013
</metadata>
<g transform="translate(0.000000,1920.000000) scale(0.100000,-0.100000)"
fill="#000000" stroke="none">
<path d="M9297 18984 c-1 -1 -72 -5 -157 -9 -188 -9 -223 -11 -325 -19 -171
-14 -222 -19 -310 -30 -16 -3 -61 -7 -100 -11 -38 -4 -72 -9 -75 -10 -3 -2
-34 -6 -69 -10 -34 -4 -72 -8 -84 -11 -12 -2 -39 -6 -62 -9 -34 -5 -89 -14
-245 -40 -14 -3 -70 -13 -125 -24 -55 -11 -113 -23 -130 -26 -32 -6 -62 -12
-97 -20 -23 -4 -150 -33 -178 -40 -8 -2 -35 -8 -60 -14 -25 -7 -56 -14 -70
-17 -14 -3 -54 -14 -90 -24 -36 -11 -74 -21 -85 -23 -64 -12 -461 -134 -665
-206 -504 -176 -1080 -434 -1490 -668 -19 -11 -62 -35 -95 -53 -83 -46 -118
-67 -273 -162 -57 -35 -111 -68 -120 -73 -9 -6 -51 -33 -92 -60 -41 -27 -83
-54 -92 -60 -42 -25 -293 -200 -333 -232 -6 -4 -64 -48 -130 -97 -66 -49 -165
-126 -220 -170 -55 -45 -108 -88 -118 -96 -10 -8 -29 -24 -41 -35 -13 -11 -43
-36 -67 -57 -24 -20 -55 -45 -68 -57 -310 -271 -581 -540 -920 -916 -106 -117
-366 -443 -519 -650 -154 -208 -472 -691 -472 -716 0 -5 -4 -9 -10 -9 -5 0
-10 -4 -10 -9 0 -5 -29 -59 -65 -121 -36 -62 -65 -113 -65 -115 0 -1 -28 -53
-63 -116 -82 -151 -297 -586 -297 -603 0 -2 -16 -38 -35 -79 -19 -41 -35 -77
-35 -80 0 -3 -14 -35 -30 -70 -17 -36 -30 -72 -30 -81 0 -8 -4 -17 -9 -20 -5
-3 -11 -16 -15 -29 -3 -13 -13 -41 -22 -63 -10 -21 -19 -43 -21 -49 -9 -33
-51 -143 -59 -160 -6 -11 -41 -114 -78 -230 -38 -115 -70 -217 -74 -225 -3 -8
-6 -19 -7 -25 -2 -5 -17 -59 -35 -120 -27 -92 -90 -332 -105 -400 -20 -85 -24
-106 -29 -133 -3 -13 -7 -31 -10 -40 -3 -9 -7 -28 -10 -42 -5 -26 -45 -230
-52 -265 -2 -11 -6 -38 -9 -60 -3 -22 -7 -47 -10 -55 -2 -8 -14 -78 -25 -155
-11 -77 -23 -156 -26 -175 -3 -19 -7 -55 -10 -80 -2 -25 -6 -61 -9 -80 -3 -19
-8 -62 -11 -95 -2 -33 -7 -80 -9 -105 -2 -25 -6 -76 -10 -115 -3 -38 -7 -95
-10 -125 -23 -273 -23 -862 0 -1215 11 -163 31 -384 45 -484 5 -35 9 -67 8
-70 0 -3 0 -8 2 -11 1 -3 3 -23 6 -45 7 -66 33 -237 44 -296 6 -30 13 -76 17
-104 3 -27 10 -61 15 -74 5 -13 7 -26 4 -28 -2 -3 0 -19 5 -36 5 -18 12 -48
15 -67 8 -46 71 -326 83 -368 5 -18 10 -35 10 -37 2 -21 67 -273 81 -315 5
-14 19 -59 31 -100 106 -359 290 -854 415 -1116 13 -28 24 -54 24 -57 0 -26
315 -638 397 -772 7 -11 15 -27 20 -35 12 -26 94 -163 140 -232 23 -37 43 -69
43 -72 0 -2 16 -28 35 -57 20 -30 40 -61 45 -69 178 -278 520 -733 753 -1000
22 -25 49 -56 61 -70 185 -213 611 -644 797 -804 19 -16 68 -59 109 -96 60
-53 245 -208 320 -267 115 -91 324 -248 405 -304 27 -19 55 -39 61 -45 7 -6
36 -26 66 -45 29 -18 55 -36 58 -39 14 -15 100 -70 109 -70 6 0 11 -3 11 -8 0
-4 9 -12 19 -17 11 -6 89 -53 173 -107 134 -84 297 -180 463 -273 28 -15 133
-70 235 -123 102 -52 190 -98 195 -102 6 -5 14 -8 18 -9 4 0 36 -13 70 -29 34
-16 85 -39 112 -52 28 -12 59 -26 69 -32 30 -16 342 -146 431 -180 44 -17 109
-42 145 -55 203 -77 720 -244 830 -268 8 -2 60 -15 115 -30 55 -14 109 -28
120 -31 11 -2 29 -6 40 -9 119 -28 246 -57 270 -61 17 -2 37 -7 46 -10 10 -2
30 -6 45 -9 26 -3 71 -12 154 -30 47 -10 145 -27 175 -31 31 -3 95 -14 130
-20 10 -2 37 -6 60 -9 56 -8 116 -16 145 -20 14 -3 50 -7 80 -10 30 -3 66 -7
80 -10 14 -2 61 -7 105 -10 44 -4 87 -8 95 -10 8 -2 60 -6 115 -10 55 -4 116
-8 135 -10 103 -11 364 -18 670 -18 356 -1 540 6 795 28 39 3 95 8 125 10 30
2 78 7 105 10 28 3 73 8 100 11 50 5 67 7 140 18 22 4 60 9 85 11 52 6 107 14
135 19 11 2 40 7 65 11 25 3 108 18 185 32 77 13 151 26 165 28 14 2 25 4 25
5 0 1 11 3 25 6 14 2 54 11 90 19 36 8 76 17 90 19 44 9 312 75 410 101 52 15
102 28 110 30 8 2 15 4 15 5 0 1 10 3 22 6 48 9 448 136 563 179 19 8 76 28
125 45 50 17 99 35 110 40 11 5 76 32 145 59 69 27 163 66 210 86 115 50 134
58 140 60 9 3 123 56 220 103 52 26 97 47 100 47 3 1 25 11 50 24 175 91 286
150 355 189 44 24 98 54 120 66 100 55 285 167 462 281 100 63 383 260 493
341 47 35 95 71 108 81 13 9 33 25 45 35 12 10 27 21 32 25 39 30 211 168 215
172 3 3 27 24 55 46 287 230 772 706 1075 1054 85 98 107 124 185 221 33 41
70 86 82 100 56 65 294 389 395 535 280 409 548 876 755 1320 74 158 194 438
222 515 7 19 17 44 22 55 22 51 105 282 156 435 69 209 114 362 175 590 33
126 80 331 94 405 2 17 9 46 14 65 5 19 11 51 14 70 3 19 7 44 10 55 16 79 39
214 56 330 6 39 13 81 15 95 2 14 7 48 10 75 2 28 7 61 9 75 2 14 7 52 10 85
4 33 8 78 11 100 7 61 15 152 21 240 3 44 7 98 9 120 27 289 21 996 -10 1340
-3 28 -7 77 -10 110 -3 33 -8 80 -11 105 -2 25 -7 65 -10 90 -2 25 -7 59 -9
75 -3 17 -7 57 -10 90 -4 33 -8 67 -10 75 -2 8 -7 38 -10 65 -3 28 -8 61 -11
75 -2 14 -7 39 -9 55 -3 17 -8 41 -10 55 -3 14 -8 42 -11 64 -3 21 -8 48 -10
60 -3 11 -9 48 -15 80 -5 33 -12 62 -14 65 -1 3 -6 24 -9 46 -4 22 -9 48 -12
58 -3 11 -7 29 -9 40 -2 12 -6 33 -10 47 -3 14 -8 36 -10 50 -2 14 -23 97 -45
185 -23 88 -43 167 -45 175 -69 269 -261 838 -359 1062 -9 20 -16 39 -16 42 0
3 -13 34 -30 68 -17 34 -30 65 -30 69 0 5 -20 52 -45 105 -25 53 -45 98 -45
100 0 18 -286 576 -337 656 -13 21 -23 40 -23 42 0 6 -170 292 -218 366 -91
141 -297 447 -325 480 -6 9 -28 38 -46 65 -19 28 -38 52 -41 55 -3 3 -30 39
-60 80 -30 41 -77 102 -105 136 -27 34 -63 78 -80 99 -16 21 -35 43 -40 49 -6
6 -30 36 -55 66 -25 30 -53 64 -63 75 -10 11 -33 37 -50 59 -18 21 -39 46 -48
55 -8 9 -62 68 -120 131 -128 141 -419 433 -558 560 -58 52 -112 102 -121 110
-9 8 -47 42 -85 75 -39 33 -75 64 -81 70 -6 5 -55 46 -109 90 -54 44 -106 87
-114 95 -9 8 -32 26 -51 39 -19 14 -43 32 -52 40 -9 9 -23 21 -30 26 -39 30
-247 183 -272 200 -16 11 -41 29 -56 40 -15 11 -68 47 -116 80 -49 33 -93 63
-99 68 -5 4 -37 25 -70 46 -33 21 -95 62 -138 90 -43 28 -80 51 -83 51 -2 0
-30 17 -61 37 -179 114 -698 390 -968 513 -38 17 -82 38 -97 46 -16 9 -28 12
-28 7 0 -4 -4 -3 -8 2 -4 6 -38 23 -77 39 -212 88 -320 131 -405 162 -52 20
-104 39 -115 44 -31 14 -239 85 -350 120 -55 17 -111 35 -125 40 -28 10 -306
90 -330 95 -14 3 -35 8 -142 36 -24 6 -54 13 -67 15 -14 3 -28 7 -31 9 -4 2
-22 7 -41 10 -19 3 -59 12 -89 20 -57 14 -286 63 -330 70 -14 2 -105 18 -202
34 -164 28 -201 34 -298 46 -19 3 -48 7 -65 9 -31 5 -114 15 -175 21 -19 2
-57 6 -85 10 -52 6 -126 12 -230 20 -33 3 -85 7 -115 10 -145 13 -962 29 -973
19z"/>
</g>
</svg>
